<svg xmlns="http://www.w3.org/2000/svg" viewBox="0 0 64 64">
  <!-- Ears -->
  <ellipse cx="14" cy="14" rx="10" ry="12" fill="#E87820"/>
  <ellipse cx="14" cy="14" rx="6"  ry="8"  fill="#D4611A" opacity="0.7"/>
  <ellipse cx="50" cy="14" rx="10" ry="12" fill="#E87820"/>
  <ellipse cx="50" cy="14" rx="6"  ry="8"  fill="#D4611A" opacity="0.7"/>
  <!-- Head -->
  <circle cx="32" cy="36" r="26" fill="#E87820"/>
  <!-- Stripes -->
  <path d="M18 22 Q32 18 46 22" stroke="#2B1800" stroke-width="3" fill="none" opacity="0.7"/>
  <path d="M16 31 Q32 27 48 31" stroke="#2B1800" stroke-width="3" fill="none" opacity="0.7"/>
  <!-- Eyes -->
  <circle cx="22" cy="32" r="7" fill="white"/>
  <circle cx="42" cy="32" r="7" fill="white"/>
  <circle cx="24" cy="31" r="4" fill="#2B1800"/>
  <circle cx="44" cy="31" r="4" fill="#2B1800"/>
  <circle cx="25" cy="30" r="1.5" fill="white"/>
  <circle cx="45" cy="30" r="1.5" fill="white"/>
  <!-- Muzzle -->
  <ellipse cx="32" cy="46" rx="14" ry="10" fill="#F5C87A"/>
  <!-- Nose -->
  <ellipse cx="32" cy="40" rx="4" ry="3" fill="#2B1800"/>
  <!-- Smile -->
  <path d="M24 48 Q32 55 40 48" stroke="#2B1800" stroke-width="2" fill="none" stroke-linecap="round"/>
</svg>
